<svg width="400" height="400" viewBox="0 0 400 400" xmlns="http://www.w3.org/2000/svg">
    <!-- 圆形背景色 -->
    <circle cx="200" cy="200" r="200" fill="#101821" />
    
    <!-- 六边形保持不变 - 浅灰色 -->
    <g id="outer-molecule" transform="translate(200, 200)">
        <polygon points="112.58,65 0,130 -112.58,65 -112.58,-65 0,-130 112.58,-65" fill="none" stroke="#AAAAAA" stroke-width="25"></polygon>
    </g>

    <!-- 连接中心圆和外围圆的六条线 -->
    <g id="connecting-lines" transform="translate(200, 200)">
        <line x1="0" y1="0" x2="103.9" y2="60" stroke="#FFA500" stroke-width="20"></line>
        <line x1="0" y1="0" x2="0" y2="120" stroke="#FFA500" stroke-width="20"></line>
        <line x1="0" y1="0" x2="-103.9" y2="60" stroke="#FFA500" stroke-width="20"></line>
        <line x1="0" y1="0" x2="-103.9" y2="-60" stroke="#FFA500" stroke-width="20"></line>
        <line x1="0" y1="0" x2="0" y2="-120" stroke="#FFA500" stroke-width="20"></line>
        <line x1="0" y1="0" x2="103.9" y2="-60" stroke="#FFA500" stroke-width="20"></line>
    </g>

    <!-- 六个实心圆向中心靠拢 - 浅灰色 -->
    <g id="outer-circles" transform="translate(200, 200)">
        <circle cx="103.9" cy="60" r="38" fill="#CCCCCC"></circle>
        <circle cx="0" cy="120" r="38" fill="#CCCCCC"></circle>
        <circle cx="-103.9" cy="60" r="38" fill="#CCCCCC"></circle>
        <circle cx="-103.9" cy="-60" r="38" fill="#CCCCCC"></circle>
        <circle cx="0" cy="-120" r="38" fill="#CCCCCC"></circle>
        <circle cx="103.9" cy="-60" r="38" fill="#CCCCCC"></circle>
    </g>
    
    <!-- 中心圆 - 不应用滤镜 -->
    <circle cx="200" cy="200" r="38" fill="#FFD700"></circle>
</svg>